<?xml version="1.0" encoding="utf-8"?>
<!-- Generator: Adobe Illustrator 24.1.3, SVG Export Plug-In . SVG Version: 6.00 Build 0)  -->
<svg version="1.1" id="圖層_1" xmlns="http://www.w3.org/2000/svg" xmlns:xlink="http://www.w3.org/1999/xlink" x="0px" y="0px"
	 viewBox="0 0 80 80" style="enable-background:new 0 0 80 80;" xml:space="preserve">
<style type="text/css">
	.st0{fill:#FAAD00;}
</style>
<path class="st0" d="M23.9,25c1-0.2,1.7-1.1,1.5-2.2l0,0c-0.9-5.1,2.5-10,7.7-10.9s10,2.5,10.9,7.7c0.2,1.1,0.2,2.2,0,3.2
	s0.5,2,1.5,2.2s2-0.5,2.2-1.5c1.2-7.2-3.6-14-10.7-15.2S23,11.9,21.8,19c-0.3,1.5-0.3,3,0,4.5C21.9,24.5,22.8,25.2,23.9,25L23.9,25z
	"/>
<path class="st0" d="M54.6,38c-1.4-2.7-4.7-3.8-7.5-2.5c-1.3-2.5-4.2-3.7-6.8-2.8V21.3c0-3.1-2.4-5.6-5.5-5.7
	c-3.1-0.1-5.7,2.3-5.8,5.4c0,0.1,0,0.1,0,0.2V50l-2.2-2.3c-2.1-2.2-5.6-2.4-7.9-0.3c-2.3,2.1-2.5,5.6-0.4,7.9c0,0,0,0.1,0.1,0.1
	l12.6,13.5c1.8,1.9,4.2,3,6.8,3h15.2c5.2,0,9.3-4.2,9.3-9.3V43c0-3.1-2.5-5.6-5.6-5.6C56.1,37.5,55.3,37.7,54.6,38L54.6,38z
	 M58.9,62.5c0,3.1-2.5,5.6-5.6,5.6l0,0H38.1c-1.5,0-3-0.6-4.1-1.8L21.4,52.8c-0.7-0.7-0.7-1.9,0-2.6c0,0,0,0,0.1,0
	c0.8-0.7,2-0.6,2.6,0.2l5.4,5.7c0.7,0.7,1.9,0.8,2.6,0.1c0.4-0.4,0.6-0.8,0.6-1.3V21.2c0-1,0.9-1.9,1.9-1.9c0,0,0,0,0.1,0
	c1,0.1,1.8,0.9,1.8,2c0,20.6,0,11.2,0,22.3c0,1,0.8,1.9,1.9,1.9c1,0,1.9-0.8,1.9-1.9v-6c0.2-1,1.2-1.7,2.2-1.4
	c0.9,0.2,1.5,0.9,1.5,1.8v5.6c0,1,0.8,1.9,1.9,1.9c1,0,1.9-0.8,1.9-1.9v-3.1c0-1,0.8-1.9,1.9-1.9c1,0,1.9,0.8,1.9,1.9v3.1
	c-0.1,1,0.7,1.9,1.7,2s1.9-0.7,2-1.7c0-0.1,0-0.2,0-0.3V43c0-1,0.8-1.9,1.9-1.9c1,0,1.9,0.8,1.9,1.9L58.9,62.5z"/>
</svg>
