<?xml version="1.0" encoding="utf-8"?>
<!-- Generator: Adobe Illustrator 24.1.3, SVG Export Plug-In . SVG Version: 6.00 Build 0)  -->
<svg version="1.1" id="圖層_1" xmlns="http://www.w3.org/2000/svg" xmlns:xlink="http://www.w3.org/1999/xlink" x="0px" y="0px"
	 viewBox="0 0 80 80" style="enable-background:new 0 0 80 80;" xml:space="preserve">
<style type="text/css">
	.st0{fill:#082B6B;}
</style>
<path class="st0" d="M68.2,18.4H18.8c-1,0-1.8,0.8-1.8,1.8l0,0v15.1h18.8c1,0,1.8,0.8,1.8,1.8v22.6h30.6c1,0,1.8-0.8,1.8-1.8l0,0
	V20.2C70,19.2,69.2,18.4,68.2,18.4L68.2,18.4z M60.7,52.3H48.3c-1,0.1-1.9-0.7-1.9-1.7s0.7-1.9,1.7-1.9c0.1,0,0.2,0,0.3,0h12.3
	c1-0.1,1.9,0.7,1.9,1.7s-0.7,1.9-1.7,1.9C60.8,52.3,60.7,52.3,60.7,52.3z"/>
<path class="st0" d="M42.8,14c-0.2-0.9-0.9-1.5-1.8-1.5H23.4c-0.9,0-1.6,0.6-1.8,1.5l-0.2,0.8h21.5L42.8,14z"/>
<path class="st0" d="M10,67.5h24V38.9H10V67.5z M26.5,62.2h-8.9c-1-0.1-1.7-0.9-1.7-1.9c0.1-0.9,0.8-1.6,1.7-1.7h8.9
	c1-0.1,1.9,0.7,1.9,1.7c0.1,1-0.7,1.9-1.7,1.9C26.6,62.2,26.6,62.2,26.5,62.2z M17.5,44.2h8.9c1,0,1.8,0.8,1.8,1.8s-0.8,1.8-1.8,1.8
	l0,0h-8.9c-1,0-1.8-0.8-1.8-1.8S16.5,44.2,17.5,44.2z M17.5,51.4h8.9c1-0.1,1.9,0.7,1.9,1.7c0.1,1-0.7,1.9-1.7,1.9
	c-0.1,0-0.2,0-0.3,0h-8.9c-1,0.1-1.9-0.7-1.9-1.7s0.7-1.9,1.7-1.9C17.4,51.4,17.5,51.4,17.5,51.4z"/>
</svg>
