<?xml version="1.0" encoding="utf-8"?>
<!-- Generator: Adobe Illustrator 24.1.3, SVG Export Plug-In . SVG Version: 6.00 Build 0)  -->
<svg version="1.1" id="圖層_1" xmlns="http://www.w3.org/2000/svg" xmlns:xlink="http://www.w3.org/1999/xlink" x="0px" y="0px"
	 viewBox="0 0 80 80" style="enable-background:new 0 0 80 80;" xml:space="preserve">
<style type="text/css">
	.st0{fill:#FAAD00;}
</style>
<path class="st0" d="M20.8,30.9c0.4,0.7,1.3,0.9,2,0.5c0.1-0.1,0.2-0.1,0.3-0.2l1-1l7.8,7.8l6.1-6.1l-7.8-7.8l1-1
	c0.6-0.6,0.6-1.5,0-2c-0.1-0.1-0.2-0.2-0.3-0.2l-7.7-4.6c-2.4-1.4-5.6-0.6-7,1.9c-0.9,1.6-0.9,3.6,0,5.1L20.8,30.9z"/>
<path class="st0" d="M51.1,35c5.2,1.9,11-0.9,12.8-6.1c0.9-2.5,0.8-5.3-0.4-7.7c-0.3-0.7-1.2-1-1.9-0.7c-0.2,0.1-0.3,0.2-0.4,0.3
	l-3.7,3.7c-0.6,0.5-1.4,0.5-2,0c-0.5-0.6-0.5-1.4,0-2l3.7-3.7c0.6-0.6,0.6-1.5,0-2c-0.1-0.1-0.3-0.2-0.4-0.3c-5-2.4-11-0.3-13.4,4.7
	c-1.1,2.4-1.3,5.2-0.4,7.7L28.9,45c-5.2-1.9-11,0.9-12.8,6.1c-0.9,2.5-0.8,5.3,0.4,7.7c0.3,0.7,1.2,1,1.9,0.7
	c0.2-0.1,0.3-0.2,0.4-0.3l3.7-3.7c0.7-0.4,1.6-0.3,2,0.4c0.3,0.5,0.3,1.1,0,1.6l-3.7,3.7c-0.6,0.6-0.6,1.5,0,2
	c0.1,0.1,0.3,0.2,0.4,0.3c1.3,0.7,2.8,1,4.3,1c5.5,0.1,10-4.4,10.1-9.9c0-1.2-0.2-2.4-0.6-3.5L51.1,35z"/>
<path class="st0" d="M49.1,41.1L41,49.3c4,5.2,6.5,8.5,11,13l0,0c1.4,1.4,3.4,2.2,5.4,2.2c1.4,0,2.8-0.4,4-1.2c3.2-2.3,4-6.8,1.7-10
	c-0.2-0.3-0.5-0.6-0.8-0.9C57.5,47.5,54.8,45.6,49.1,41.1z M58.3,58.3c-0.6,0.5-1.5,0.5-2-0.1l-5.7-5.7c-0.5-0.5-0.6-1.4-0.1-2
	s1.5-0.6,2,0l0,0l5.8,5.7C58.8,56.8,58.8,57.7,58.3,58.3z"/>
</svg>
