<?xml version="1.0" encoding="utf-8"?>
<!-- Generator: Adobe Illustrator 24.1.3, SVG Export Plug-In . SVG Version: 6.00 Build 0)  -->
<svg version="1.1" id="圖層_1" xmlns="http://www.w3.org/2000/svg" xmlns:xlink="http://www.w3.org/1999/xlink" x="0px" y="0px"
	 viewBox="0 0 80 80" style="enable-background:new 0 0 80 80;" xml:space="preserve">
<style type="text/css">
	.st0{fill:#FAAD00;}
</style>
<path class="st0" d="M65.7,12.4H38c-3.2,0-5.8,2.6-5.8,5.8v13.6l4.5,2.2l2.3-4.5c1.4-2.7,4.8-3.7,7.5-2.3c2.6,1.4,3.7,4.6,2.4,7.3
	l-4,8c0.1,1.1,0,2.1-0.3,3.2h2.7l-7,19.3c-0.4,0.9,0,2,0.9,2.4s2,0,2.4-0.9c0-0.1,0.1-0.2,0.1-0.2l7.4-20.5h1.3L60,66.3
	c0.3,1,1.4,1.5,2.3,1.2s1.5-1.4,1.2-2.3v-0.1l-7.1-19.3h9.3c3.2,0,5.8-2.6,5.8-5.8V18.3C71.5,15,68.9,12.4,65.7,12.4L65.7,12.4z
	 M61.7,37.9h-8.2c-1,0.1-1.9-0.7-2-1.7s0.7-1.9,1.7-2c0.1,0,0.2,0,0.3,0h8.3c1,0.1,1.8,1,1.7,2C63.4,37.1,62.7,37.8,61.7,37.9
	L61.7,37.9z M61.7,31h-8.2c-1,0.1-1.9-0.7-2-1.7s0.7-1.9,1.7-2c0.1,0,0.2,0,0.3,0h8.3c1,0.1,1.8,1,1.7,2
	C63.4,30.2,62.7,30.9,61.7,31L61.7,31z M61.7,24H42c-1,0.1-1.9-0.7-2-1.7s0.7-1.9,1.7-2c0.1,0,0.2,0,0.3,0h19.8c1,0.1,1.8,1,1.7,2
	S62.7,24,61.7,24L61.7,24z"/>
<path class="st0" d="M41,45c0.3-0.9,0.3-2,0-2.9l4.6-9.2c0.5-0.9,0.1-2-0.8-2.5c-0.9-0.5-2-0.1-2.5,0.8L38.4,39l-8.7-4.3
	c-2.7-1.3-4.6-2.5-7.8-2.5h-1.6c4.4,0,8-3.6,8-8s-3.6-8-8-8s-8,3.6-8,8c0,2,0.8,4,2.2,5.5c1.5,1.6,3.6,2.5,5.9,2.5
	c-3.1,0-6.1,1.2-8.3,3.4s-3.5,5.2-3.4,8.3v5.9c0,2.5,1.6,4.7,3.9,5.5v10.3c0,1,0.8,1.8,1.9,1.8h11.9c1,0,1.8-0.8,1.8-1.8V45l5.9,3
	c2.5,1.2,5.6,0.2,6.8-2.3C40.8,45.5,40.9,45.2,41,45L41,45z"/>
</svg>
