<?xml version="1.0" encoding="utf-8"?>
<!-- Generator: Adobe Illustrator 24.1.3, SVG Export Plug-In . SVG Version: 6.00 Build 0)  -->
<svg version="1.1" id="圖層_1" xmlns="http://www.w3.org/2000/svg" xmlns:xlink="http://www.w3.org/1999/xlink" x="0px" y="0px"
	 viewBox="0 0 80 80" style="enable-background:new 0 0 80 80;" xml:space="preserve">
<style type="text/css">
	.st0{fill:#082B6B;}
</style>
<path class="st0" d="M47.7,14.9c0-4.3-3.4-7.8-7.7-7.9c-4.3,0.1-7.8,3.6-7.9,7.9c0.1,4.3,3.6,7.7,7.9,7.7
	C44.3,22.6,47.7,19.1,47.7,14.9z"/>
<path class="st0" d="M53.5,49.7c0,4.2,3.4,7.7,7.7,7.7c0.1,0,0.2,0,0.3,0c3.1,0.5,7.4-3.1,7.4-7.7c0-4.3-3.5-7.7-7.7-7.7
	S53.5,45.4,53.5,49.7L53.5,49.7L53.5,49.7z"/>
<path class="st0" d="M10.9,49.7c0,4.6,4.3,8,7.3,7.7c4.3,0.2,7.9-3.1,8.1-7.3c0.2-4.3-3.1-7.9-7.3-8.1s-7.9,3.1-8.1,7.3
	C10.9,49.4,10.9,49.5,10.9,49.7z"/>
<path class="st0" d="M61.3,61.3c-3.3,0-6.4-1.4-8.6-3.9c-1.9,2.2-3,5-3,7.9v1.9c0,1.1,0.8,1.9,1.9,1.9l0,0h19.3c1.1,0,2-0.8,2.1-1.9
	v-1.9c-0.1-2.9-1.2-5.7-3.2-7.9C67.7,59.9,64.6,61.3,61.3,61.3z"/>
<path class="st0" d="M51.6,32.3v-1.9c0-2.9-1.1-5.6-3-7.7c-2.2,2.5-5.3,3.9-8.6,3.9s-6.5-1.4-8.7-3.9c-1.9,2.1-3,4.9-3,7.7v1.9
	c0,1.1,0.9,1.9,1.9,1.9h19.5C50.7,34.2,51.6,33.3,51.6,32.3L51.6,32.3z"/>
<path class="st0" d="M8.9,69.1h19.3c1.1,0,1.9-0.8,1.9-1.9l0,0v-1.9c0-2.9-1.1-5.7-3-7.9c-4.2,4.7-11.4,5.2-16.2,1
	c-0.4-0.3-0.7-0.7-1-1c-1.9,2.2-3,5-3,7.9v1.9C7,68.3,7.8,69.1,8.9,69.1L8.9,69.1z"/>
<path class="st0" d="M24.6,27.8c-3.5,2.7-6.3,6.4-8,10.5c0.7-0.1,1.3-0.2,2-0.2c0.8,0,1.5,0.1,2.3,0.2c0.9-1.9,2.2-3.6,3.6-5.2
	c-0.1-0.3-0.1-0.6-0.1-0.8v-1.9C24.4,29.5,24.5,28.6,24.6,27.8z"/>
<path class="st0" d="M55.2,27.8c0.1,0.8,0.2,1.7,0.2,2.6v1.9c0,0.3,0,0.6-0.1,0.8c1.5,1.5,2.7,3.3,3.6,5.2c0.7-0.2,1.5-0.2,2.3-0.2
	c0.7,0,1.3,0.1,2,0.2C61.6,34.1,58.8,30.5,55.2,27.8z"/>
<path class="st0" d="M45.9,68.2c-3.9,1.1-8,1.1-11.9,0c-0.2,1.3-1,2.6-2,3.4c2.6,0.9,5.3,1.3,8,1.3s5.4-0.5,8-1.3
	C46.9,70.8,46.2,69.6,45.9,68.2z"/>
</svg>
