<?xml version="1.0" encoding="utf-8"?>
<!-- Generator: Adobe Illustrator 24.1.3, SVG Export Plug-In . SVG Version: 6.00 Build 0)  -->
<svg version="1.1" id="圖層_1" xmlns="http://www.w3.org/2000/svg" xmlns:xlink="http://www.w3.org/1999/xlink" x="0px" y="0px"
	 viewBox="0 0 80 80" style="enable-background:new 0 0 80 80;" xml:space="preserve">
<style type="text/css">
	.st0{fill:#082B6B;}
</style>
<path class="st0" d="M67.6,28.5c1.2-5.7-2.6-11.3-8.3-12.5c-0.3,0-0.6,0-1-0.1C56,10.5,49.8,8,44.5,10.3c-1.8,0.8-3.3,2-4.5,3.6
	C36.6,9.1,30,8,25.3,11.4c-1.6,1.1-2.8,2.7-3.6,4.5c-5.8,0.6-10,5.9-9.4,11.7c0,0.3,0.1,0.6,0.1,0.9c-4.4,3.8-5,10.5-1.2,15
	c0,0,0,0.1,0.1,0.1c-4.4,5.8-3.2,14,2.7,18.3c2.3,1.7,5,2.6,7.9,2.6c2.5,5.3,8.8,7.5,14.1,5c1.6-0.8,3-2,4.1-3.4
	c3.4,4.8,10,5.9,14.7,2.5c1.5-1,2.6-2.4,3.4-4c7.3,0,13.2-5.9,13.2-13.1c0-2.8-0.9-5.6-2.6-7.9C72.6,39.1,72.1,32.4,67.6,28.5
	L67.6,28.5L67.6,28.5z M26.3,54.1c-1,1.2-1.5,2.7-1.5,4.2c0,1.1-0.9,2-2,2s-2-0.9-2-2c0-2.5,0.9-4.8,2.4-6.7
	c0.8-0.7,2.1-0.7,2.8,0.1C26.6,52.4,26.7,53.4,26.3,54.1L26.3,54.1z M31.2,36.5c-3.5,1.2-5.3,4.9-4.2,8.4c0.5,1,0,2.2-1,2.6
	s-2.2,0-2.6-1c-0.1-0.1-0.1-0.3-0.1-0.4c-0.4-1.2-0.6-2.5-0.5-3.8c-1.6,0.2-3.2,0.8-4.5,1.8c-1,0.5-2.2,0.1-2.7-0.8
	c-0.4-0.8-0.3-1.7,0.3-2.3c2.3-1.7,5-2.6,7.9-2.6c0.5-0.9,1.1-1.8,1.8-2.6c-2-3.8-1.1-8.5,2.2-11.3c0.7-0.9,1.9-1,2.8-0.3
	s1,1.9,0.3,2.8c-0.2,0.2-0.4,0.4-0.6,0.5c-1.7,1.4-2.3,3.8-1.5,5.8c0.4-0.2,0.9-0.4,1.3-0.5c1-0.5,2.2-0.1,2.7,0.8
	c0.5,1,0.1,2.2-0.8,2.7C31.7,36.3,31.4,36.4,31.2,36.5L31.2,36.5z M42,60.9c0.2,1.1-0.6,2.1-1.7,2.3c-1.1,0.2-2.1-0.6-2.3-1.7
	c0-0.2,0-0.4,0-0.6V19.1c0.2-1.1,1.2-1.8,2.3-1.7c0.9,0.1,1.5,0.8,1.7,1.7V60.9z M57.2,60.3c-1.1,0-2-0.9-2-2c0-1.5-0.5-3-1.5-4.2
	c-0.5-1-0.2-2.2,0.8-2.7c0.7-0.4,1.6-0.3,2.2,0.2c1.6,1.9,2.4,4.3,2.4,6.7C59.1,59.4,58.2,60.3,57.2,60.3L57.2,60.3z M64.7,43.6
	c-0.7,0.8-1.9,1-2.7,0.4c-1.3-1-2.9-1.6-4.5-1.8c0.1,1.3-0.1,2.6-0.6,3.8c-0.5,1-1.7,1.4-2.7,0.9c-0.8-0.4-1.2-1.2-1.1-2.1
	c1.1-3.5-0.8-7.2-4.2-8.4c-1.1-0.2-1.8-1.2-1.7-2.3c0.2-1.1,1.2-1.8,2.3-1.7c0.2,0,0.4,0.1,0.6,0.2c0.4,0.2,0.9,0.3,1.3,0.5
	c0.8-2.1,0.2-4.4-1.5-5.8c-1-0.5-1.3-1.8-0.8-2.7c0.5-1,1.8-1.3,2.7-0.8c0.2,0.1,0.4,0.3,0.6,0.5c3.3,2.8,4.3,7.5,2.2,11.3
	c0.7,0.8,1.3,1.6,1.7,2.6c2.9,0,5.6,0.9,7.9,2.6C65.2,41.5,65.4,42.8,64.7,43.6L64.7,43.6z"/>
</svg>
