<?xml version="1.0" encoding="utf-8"?>
<!-- Generator: Adobe Illustrator 24.1.3, SVG Export Plug-In . SVG Version: 6.00 Build 0)  -->
<svg version="1.1" id="圖層_1" xmlns="http://www.w3.org/2000/svg" xmlns:xlink="http://www.w3.org/1999/xlink" x="0px" y="0px"
	 viewBox="0 0 80 80" style="enable-background:new 0 0 80 80;" xml:space="preserve">
<style type="text/css">
	.st0{fill:#082B6B;}
</style>
<path class="st0" d="M56.4,63H51l-1.1-3.3H30.1L29,63h-5.4c-0.9,0-1.6,0.7-1.6,1.6c0,0.9,0.7,1.6,1.6,1.6h32.8
	c0.9,0,1.6-0.7,1.6-1.6C58,63.7,57.3,63,56.4,63z"/>
<path class="st0" d="M56.4,23.6c-0.9,0-1.7,0.7-1.7,1.6s0.7,1.7,1.6,1.7c0.9,0,1.7-0.7,1.7-1.6l0,0C58,24.3,57.3,23.6,56.4,23.6z"/>
<path class="st0" d="M63,13.8H17c-2.7,0-5,2.1-5,4.9c0,0,0,0,0,0.1v27.9h10v-4.9c0-0.9,0.7-1.6,1.6-1.6h2.5c0.2-0.5,0.4-1,0.6-1.4
	L24.9,37c-0.6-0.6-0.6-1.7,0-2.3l0,0l4.6-4.6c0.6-0.6,1.7-0.6,2.3,0l0,0l1.8,1.8c0.5-0.2,0.9-0.4,1.4-0.6v-2.5
	c0-0.9,0.7-1.6,1.6-1.6l0,0h6.6c0.9,0,1.6,0.7,1.6,1.6l0,0v2.5c0.5,0.2,1,0.4,1.4,0.6l1.8-1.8c0.6-0.6,1.7-0.6,2.3,0l0,0l4.6,4.6
	c0.6,0.6,0.6,1.7,0,2.3l0,0l-1.8,1.8c0.2,0.5,0.4,0.9,0.6,1.4h2.5c0.9,0,1.6,0.7,1.6,1.6v4.9h10v-28C68,15.9,65.7,13.7,63,13.8z
	 M56.4,30.2c-2.7,0-4.9-2.2-4.9-4.9s2.2-4.9,4.9-4.9s4.9,2.2,4.9,4.9l0,0C61.3,27.9,59.1,30.2,56.4,30.2z"/>
<path class="st0" d="M35.1,44.9c0,0.6,0.1,1.1,0.3,1.6h9.2c0.2-0.5,0.3-1.1,0.3-1.6c0-2.7-2.2-4.9-4.9-4.9
	C37.3,40,35.1,42.2,35.1,44.9z"/>
<path class="st0" d="M28.9,42c-0.2,0.7-0.8,1.2-1.6,1.2h-2.1v3.3H32c-1-4.4,1.8-8.8,6.2-9.8S47,38.5,48,43c0.3,1.2,0.3,2.4,0,3.6
	h6.8v-3.3h-2.1c-0.7,0-1.4-0.5-1.6-1.2c-0.3-1-0.7-2-1.2-2.9c-0.4-0.6-0.3-1.5,0.3-2l1.5-1.5l-2.3-2.3l-1.5,1.5
	c-0.5,0.5-1.4,0.6-2,0.3C45,34.7,44,34.2,43,34c-0.7-0.2-1.2-0.8-1.2-1.6v-2.1h-3.3v2.1c0,0.7-0.5,1.4-1.2,1.6c-1,0.3-2,0.7-2.9,1.2
	c-0.6,0.4-1.5,0.3-2-0.3l-1.5-1.5l-2.3,2.3l1.5,1.5c0.5,0.5,0.6,1.4,0.3,2C29.6,40,29.2,41,28.9,42z"/>
<path class="st0" d="M12,51.5c0,2.7,2.2,4.9,4.9,4.9H63c2.7,0,5-2.2,5-4.9v-1.6H12V51.5z"/>
</svg>
